<?xml version="1.0" encoding="utf-8"?> <!-- Generator: IcoMoon.io --> <!DOCTYPE svg PUBLIC "-//W3C//DTD SVG 1.1//EN" "http://www.w3.org/Graphics/SVG/1.1/DTD/svg11.dtd"> <svg width="32" height="32" viewBox="0 0 32 32" xmlns="http://www.w3.org/2000/svg" xmlns:xlink="http://www.w3.org/1999/xlink" fill="#000000"><g><path d="M 31.219,28.771L 16.966,3.762C 16.77,3.416, 16.4,3.203, 16,3.203c-0.4,0-0.768,0.213-0.966,0.558L 0.782,28.771 c-0.194,0.339-0.19,0.754, 0.008,1.090s 0.563,0.542, 0.957,0.542l 28.504,0 c 0.39,0, 0.757-0.206, 0.957-0.542 C 31.406,29.525, 31.41,29.11, 31.219,28.771z M 17.76,27.203L 14.24,27.203 l0-3.2 l 3.52,0 L 17.76,27.203 z M 17.76,21.603L 14.24,21.603 l0-9.6 l 3.52,0 L 17.76,21.603 z"></path></g></svg>